<?xml version="1.0" encoding="UTF-8" ?>
<svg version="1.1" width="64" height="64" xmlns="http://www.w3.org/2000/svg" shape-rendering="crispEdges">
<rect x="46" y="14" width="2" height="2" fill="#442E18" />
<rect x="48" y="14" width="2" height="2" fill="#442E18" />
<rect x="44" y="16" width="2" height="2" fill="#442E18" />
<rect x="46" y="16" width="2" height="2" fill="#BA804B" />
<rect x="48" y="16" width="2" height="2" fill="#442E18" />
<rect x="42" y="18" width="2" height="2" fill="#442E18" />
<rect x="44" y="18" width="2" height="2" fill="#B47E4A" />
<rect x="46" y="18" width="2" height="2" fill="#442E18" />
<rect x="40" y="20" width="2" height="2" fill="#442E18" />
<rect x="42" y="20" width="2" height="2" fill="#B37B47" />
<rect x="44" y="20" width="2" height="2" fill="#442E18" />
<rect x="38" y="22" width="2" height="2" fill="#442E18" />
<rect x="40" y="22" width="2" height="2" fill="#B17A46" />
<rect x="42" y="22" width="2" height="2" fill="#442E18" />
<rect x="36" y="24" width="2" height="2" fill="#442E18" />
<rect x="38" y="24" width="2" height="2" fill="#B27A44" />
<rect x="40" y="24" width="2" height="2" fill="#442E18" />
<rect x="34" y="26" width="2" height="2" fill="#442E18" />
<rect x="36" y="26" width="2" height="2" fill="#B27943" />
<rect x="38" y="26" width="2" height="2" fill="#442E18" />
<rect x="32" y="28" width="2" height="2" fill="#442E18" />
<rect x="34" y="28" width="2" height="2" fill="#AF7841" />
<rect x="36" y="28" width="2" height="2" fill="#442E18" />
<rect x="30" y="30" width="2" height="2" fill="#442E18" />
<rect x="32" y="30" width="2" height="2" fill="#AC743F" />
<rect x="34" y="30" width="2" height="2" fill="#442E18" />
<rect x="28" y="32" width="2" height="2" fill="#442E18" />
<rect x="30" y="32" width="2" height="2" fill="#9F6A38" />
<rect x="32" y="32" width="2" height="2" fill="#442E18" />
<rect x="26" y="34" width="2" height="2" fill="#442E18" />
<rect x="28" y="34" width="2" height="2" fill="#9F6A38" />
<rect x="30" y="34" width="2" height="2" fill="#442E18" />
<rect x="24" y="36" width="2" height="2" fill="#442E18" />
<rect x="26" y="36" width="2" height="2" fill="#906031" />
<rect x="28" y="36" width="2" height="2" fill="#442E18" />
<rect x="22" y="38" width="2" height="2" fill="#442E18" />
<rect x="24" y="38" width="2" height="2" fill="#80491B" />
<rect x="26" y="38" width="2" height="2" fill="#442E18" />
<rect x="20" y="40" width="2" height="2" fill="#442E18" />
<rect x="22" y="40" width="2" height="2" fill="#7B3C18" />
<rect x="24" y="40" width="2" height="2" fill="#442E18" />
<rect x="18" y="42" width="2" height="2" fill="#442E18" />
<rect x="20" y="42" width="2" height="2" fill="#723B18" />
<rect x="22" y="42" width="2" height="2" fill="#442E18" />
<rect x="24" y="42" width="2" height="2" fill="#2A3A3B" />
<rect x="26" y="42" width="2" height="2" fill="#2A3A3B" />
<rect x="16" y="44" width="2" height="2" fill="#442E18" />
<rect x="18" y="44" width="2" height="2" fill="#7B3E19" />
<rect x="20" y="44" width="2" height="2" fill="#442E18" />
<rect x="24" y="44" width="2" height="2" fill="#2A3A3B" />
<rect x="26" y="44" width="2" height="2" fill="#2A3A3B" />
<rect x="14" y="46" width="2" height="2" fill="#442E18" />
<rect x="16" y="46" width="2" height="2" fill="#793D17" />
<rect x="18" y="46" width="2" height="2" fill="#442E18" />
<rect x="14" y="48" width="2" height="2" fill="#442E18" />
<rect x="16" y="48" width="2" height="2" fill="#442E18" />
</svg>