<?xml version="1.0" encoding="UTF-8"?>
<svg width="100" height="100" viewBox="0 0 100 100" xmlns="http://www.w3.org/2000/svg">
  <defs>
    <linearGradient id="mightyGrad" x1="0%" y1="0%" x2="100%" y2="100%">
      <stop offset="0%" style="stop-color:#FFD700;stop-opacity:1" />
      <stop offset="50%" style="stop-color:#FFA500;stop-opacity:1" />
      <stop offset="100%" style="stop-color:#FF8C00;stop-opacity:1" />
    </linearGradient>
    <radialGradient id="powerGlow" cx="50%" cy="50%" r="60%">
      <stop offset="0%" style="stop-color:#FFD700;stop-opacity:0.5"/>
      <stop offset="100%" style="stop-color:#FFA500;stop-opacity:0"/>
    </radialGradient>
  </defs>
  
  <!-- Power glow -->
  <rect x="8" y="8" width="84" height="84" rx="25" fill="url(#powerGlow)"/>
  
  <!-- Main food container -->
  <rect x="12" y="12" width="76" height="76" rx="20" fill="url(#mightyGrad)" stroke="#B8860B" stroke-width="3"/>
  
  <!-- Lightning bolt in center -->
  <path d="M45 25 L40 45 L48 45 L42 65 L55 40 L47 40 L52 25 Z" fill="#FFFFFF" stroke="#FFD700" stroke-width="2"/>
  
  <!-- Muscle/strength symbols -->
  <circle cx="30" cy="35" r="6" fill="#FF4500" stroke="#B8860B" stroke-width="2"/>
  <ellipse cx="30" cy="35" rx="4" ry="6" fill="#FF6347"/>
  
  <circle cx="70" cy="35" r="6" fill="#FF4500" stroke="#B8860B" stroke-width="2"/>
  <ellipse cx="70" cy="35" rx="4" ry="6" fill="#FF6347"/>
  
  <!-- Energy sparks -->
  <circle cx="25" cy="65" r="3" fill="#FFFF00" stroke="#FFD700" stroke-width="1"/>
  <path d="M25 62 L25 68 M22 65 L28 65" stroke="#FFD700" stroke-width="2"/>
  
  <circle cx="75" cy="65" r="3" fill="#FFFF00" stroke="#FFD700" stroke-width="1"/>
  <path d="M75 62 L75 68 M72 65 L78 65" stroke="#FFD700" stroke-width="2"/>
  
  <!-- Power indicators -->
  <text x="30" y="82" text-anchor="middle" font-family="Arial" font-size="12" fill="#B8860B">💪</text>
  <text x="70" y="82" text-anchor="middle" font-family="Arial" font-size="12" fill="#B8860B">💪</text>
</svg>
