<?xml version="1.0" encoding="UTF-8"?>
<svg width="150" height="150" viewBox="0 0 150 150" xmlns="http://www.w3.org/2000/svg">
  <!-- Epic lightning effects -->
  <defs>
    <radialGradient id="epicSpeedGlow" cx="50%" cy="50%" r="70%">
      <stop offset="0%" style="stop-color:#FFD700;stop-opacity:0.6"/>
      <stop offset="50%" style="stop-color:#FF4500;stop-opacity:0.4"/>
      <stop offset="100%" style="stop-color:#DC143C;stop-opacity:0"/>
    </radialGradient>
    <linearGradient id="epicSpeedLiquid" x1="0%" y1="0%" x2="100%" y2="100%">
      <stop offset="0%" style="stop-color:#FFD700;stop-opacity:1"/>
      <stop offset="30%" style="stop-color:#FF4500;stop-opacity:0.95"/>
      <stop offset="70%" style="stop-color:#DC143C;stop-opacity:0.95"/>
      <stop offset="100%" style="stop-color:#8B0000;stop-opacity:1"/>
    </linearGradient>
    <radialGradient id="lightningBottle" cx="30%" cy="30%" r="70%">
      <stop offset="0%" style="stop-color:#FFF8DC;stop-opacity:1"/>
      <stop offset="100%" style="stop-color:#FF4500;stop-opacity:1"/>
    </radialGradient>
  </defs>
  
  <!-- Multiple lightning auras -->
  <ellipse cx="75" cy="90" rx="80" ry="75" fill="url(#epicSpeedGlow)"/>
  <ellipse cx="75" cy="90" rx="65" ry="60" fill="#FFD700" opacity="0.15"/>
  <ellipse cx="75" cy="90" rx="50" ry="45" fill="#FF4500" opacity="0.1"/>
  
  <!-- Epic bottle body -->
  <rect x="45" y="60" width="60" height="80" rx="12" ry="12" fill="url(#lightningBottle)" stroke="#FFD700" stroke-width="5"/>
  
  <!-- Lightning neck -->
  <rect x="60" y="40" width="30" height="25" fill="url(#lightningBottle)" stroke="#FFD700" stroke-width="5"/>
  
  <!-- Legendary cork with thunderbolt -->
  <rect x="55" y="30" width="40" height="15" rx="7" ry="7" fill="#FFD700" stroke="#FF4500" stroke-width="3"/>
  <rect x="60" y="32" width="30" height="5" fill="#FFFFFF" opacity="0.9"/>
  <text x="75" y="42" text-anchor="middle" font-family="Arial" font-size="10" fill="#FF4500">⚡</text>
  
  <!-- Epic liquid with electric gradient -->
  <rect x="50" y="65" width="50" height="70" rx="7" ry="7" fill="url(#epicSpeedLiquid)"/>
  
  <!-- Lightning-powered label -->
  <rect x="48" y="83" width="54" height="34" fill="#FFFFFF" stroke="#FFD700" stroke-width="2" opacity="0.98" rx="5" ry="5"/>
  <rect x="50" y="85" width="50" height="30" fill="none" stroke="#FF4500" stroke-width="1" rx="3" ry="3"/>
  <text x="75" y="95" text-anchor="middle" font-family="Arial" font-size="8" font-weight="bold" fill="#8B0000">EPIC</text>
  <text x="75" y="105" text-anchor="middle" font-family="Arial" font-size="8" font-weight="bold" fill="#8B0000">SPEED</text>
  <text x="75" y="113" text-anchor="middle" font-family="Arial" font-size="6" font-weight="bold" fill="#FF4500">+40%</text>
  
  <!-- Electric energy bubbles -->
  <circle cx="60" cy="75" r="5" fill="#FFD700" opacity="0.95" stroke="#FF4500" stroke-width="2"/>
  <circle cx="85" cy="85" r="4" fill="#FF4500" opacity="0.95" stroke="#DC143C" stroke-width="2"/>
  <circle cx="70" cy="95" r="4.5" fill="#DC143C" opacity="0.95" stroke="#FFD700" stroke-width="2"/>
  <circle cx="55" cy="110" r="3" fill="#FFFF00" opacity="0.9" stroke="#FF4500" stroke-width="1"/>
  <circle cx="90" cy="105" r="3.5" fill="#FF1493" opacity="0.9" stroke="#FFD700" stroke-width="1"/>
  <circle cx="75" cy="125" r="2.5" fill="#FFD700" opacity="0.8" stroke="#DC143C" stroke-width="1"/>
  
  <!-- Epic speed streaks -->
  <path d="M 10 60 L 40 60 L 35 55 M 40 60 L 35 65" stroke="#FFD700" stroke-width="4" fill="none"/>
  <path d="M 110 70 L 140 70 L 135 65 M 140 70 L 135 75" stroke="#FFD700" stroke-width="4" fill="none"/>
  <path d="M 15 90 L 45 90 L 40 85 M 45 90 L 40 95" stroke="#FF4500" stroke-width="4" fill="none"/>
  <path d="M 105 100 L 135 100 L 130 95 M 135 100 L 130 105" stroke="#FF4500" stroke-width="4" fill="none"/>
  <path d="M 20 120 L 50 120 L 45 115 M 50 120 L 45 125" stroke="#DC143C" stroke-width="3" fill="none"/>
  <path d="M 100 125 L 130 125 L 125 120 M 130 125 L 125 130" stroke="#DC143C" stroke-width="3" fill="none"/>
  
  <!-- Lightning bolts and electricity -->
  <text x="25" y="35" font-family="Arial" font-size="16" fill="#FFD700">⚡</text>
  <text x="115" y="45" font-family="Arial" font-size="14" fill="#FF4500">⚡</text>
  <text x="15" y="75" font-family="Arial" font-size="12" fill="#DC143C">⚡</text>
  <text x="125" y="85" font-family="Arial" font-size="12" fill="#FFD700">⚡</text>
  <text x="20" y="110" font-family="Arial" font-size="10" fill="#FF4500">⚡</text>
  <text x="120" y="115" font-family="Arial" font-size="10" fill="#DC143C">⚡</text>
  <text x="30" y="135" font-family="Arial" font-size="8" fill="#FFFF00">⚡</text>
  <text x="110" y="130" font-family="Arial" font-size="8" fill="#FF1493">⚡</text>
  
  <!-- Electric rings -->
  <circle cx="75" cy="90" r="70" fill="none" stroke="#FFD700" stroke-width="2" opacity="0.6"/>
  <circle cx="75" cy="90" r="60" fill="none" stroke="#FF4500" stroke-width="1" opacity="0.5"/>
  <circle cx="75" cy="90" r="80" fill="none" stroke="#DC143C" stroke-width="1" opacity="0.4"/>
  
  <!-- Lightning runes -->
  <text x="40" y="25" font-family="Arial" font-size="8" fill="#DC143C">⚡</text>
  <text x="100" y="30" font-family="Arial" font-size="8" fill="#FFD700">⚡</text>
  <text x="15" y="50" font-family="Arial" font-size="8" fill="#FF4500">⚡</text>
  <text x="130" y="60" font-family="Arial" font-size="8" fill="#DC143C">⚡</text>
  
  <!-- Epic speed indicator -->
  <text x="75" y="20" text-anchor="middle" font-family="Arial" font-size="14" fill="#DC143C" font-weight="bold">💨</text>
  <text x="65" y="20" text-anchor="middle" font-family="Arial" font-size="10" fill="#FFD700">💨</text>
  <text x="85" y="20" text-anchor="middle" font-family="Arial" font-size="10" fill="#FF4500">💨</text>
</svg>
