<?xml version="1.0" encoding="UTF-8"?>
<svg width="150" height="150" viewBox="0 0 150 150" xmlns="http://www.w3.org/2000/svg">
  <!-- Bottle body -->
  <rect x="45" y="60" width="60" height="80" rx="10" ry="10" fill="#FFB347" stroke="#FF8C00" stroke-width="3"/>
  
  <!-- Bottle neck -->
  <rect x="60" y="40" width="30" height="25" fill="#FFB347" stroke="#FF8C00" stroke-width="3"/>
  
  <!-- Cork/Cap -->
  <rect x="55" y="30" width="40" height="15" rx="5" ry="5" fill="#8B4513" stroke="#654321" stroke-width="2"/>
  
  <!-- Liquid inside -->
  <rect x="50" y="65" width="50" height="70" rx="5" ry="5" fill="#FF6347" opacity="0.8"/>
  
  <!-- Label -->
  <rect x="50" y="85" width="50" height="30" fill="#FFFFFF" opacity="0.9" rx="3" ry="3"/>
  
  <!-- Player icon in label -->
  <circle cx="72" cy="95" r="3" fill="#FF4500"/>
  <rect x="70" y="97" width="4" height="6" fill="#FF4500"/>
  <rect x="69" y="100" width="2" height="3" fill="#FF4500"/>
  <rect x="73" y="100" width="2" height="3" fill="#FF4500"/>
  
  <!-- Percentage text -->
  <text x="75" y="110" text-anchor="middle" font-family="Arial" font-size="6" fill="#000">+20%</text>
  
  <!-- Energy bubbles -->
  <circle cx="60" cy="75" r="3" fill="#FFFF00" opacity="0.8"/>
  <circle cx="85" cy="85" r="2" fill="#FFFF00" opacity="0.8"/>
  <circle cx="70" cy="95" r="2.5" fill="#FFFF00" opacity="0.8"/>
  <circle cx="65" cy="125" r="2" fill="#FFFF00" opacity="0.8"/>
  
  <!-- Speed lines/arrows -->
  <path d="M 20 70 L 35 70 L 30 65 M 35 70 L 30 75" stroke="#FF4500" stroke-width="2" fill="none"/>
  <path d="M 115 80 L 130 80 L 125 75 M 130 80 L 125 85" stroke="#FF4500" stroke-width="2" fill="none"/>
  <path d="M 25 100 L 40 100 L 35 95 M 40 100 L 35 105" stroke="#FF4500" stroke-width="2" fill="none"/>
  
  <!-- Magic sparkles -->
  <text x="35" y="45" font-family="Arial" font-size="12" fill="#FFD700">⚡</text>
  <text x="105" y="55" font-family="Arial" font-size="10" fill="#FFD700">⚡</text>
  <text x="25" y="125" font-family="Arial" font-size="8" fill="#FFD700">⚡</text>
  <text x="115" y="115" font-family="Arial" font-size="8" fill="#FFD700">⚡</text>
  
  <!-- Speed indicator -->
  <text x="75" y="25" text-anchor="middle" font-family="Arial" font-size="10" fill="#FF0000" font-weight="bold">💨</text>
</svg>
