<?xml version="1.0" encoding="UTF-8"?>
<svg width="150" height="150" viewBox="0 0 150 150" xmlns="http://www.w3.org/2000/svg">
  <!-- Enhanced speed effects -->
  <defs>
    <radialGradient id="speedGlow" cx="50%" cy="50%" r="60%">
      <stop offset="0%" style="stop-color:#FF4500;stop-opacity:0.4"/>
      <stop offset="100%" style="stop-color:#FF4500;stop-opacity:0"/>
    </radialGradient>
    <linearGradient id="speedLiquid" x1="0%" y1="0%" x2="100%" y2="100%">
      <stop offset="0%" style="stop-color:#FF4500;stop-opacity:1"/>
      <stop offset="50%" style="stop-color:#FF6347;stop-opacity:0.9"/>
      <stop offset="100%" style="stop-color:#FF8C00;stop-opacity:1"/>
    </linearGradient>
  </defs>
  
  <!-- Speed aura -->
  <ellipse cx="75" cy="90" rx="70" ry="65" fill="url(#speedGlow)"/>
  
  <!-- Enhanced bottle body -->
  <rect x="45" y="60" width="60" height="80" rx="12" ry="12" fill="#FFB347" stroke="#FF4500" stroke-width="4"/>
  
  <!-- Bottle neck -->
  <rect x="60" y="40" width="30" height="25" fill="#FFB347" stroke="#FF4500" stroke-width="4"/>
  
  <!-- Enhanced cork with lightning -->
  <rect x="55" y="30" width="40" height="15" rx="5" ry="5" fill="#CD853F" stroke="#B8860B" stroke-width="2"/>
  <rect x="60" y="32" width="30" height="3" fill="#FFD700"/>
  <text x="75" y="42" text-anchor="middle" font-family="Arial" font-size="8" fill="#FFD700">⚡</text>
  
  <!-- Enhanced liquid -->
  <rect x="50" y="65" width="50" height="70" rx="7" ry="7" fill="url(#speedLiquid)"/>
  
  <!-- Enhanced label -->
  <rect x="48" y="83" width="54" height="34" fill="#FFFFFF" stroke="#FF4500" stroke-width="1" opacity="0.95" rx="5" ry="5"/>
  
  <!-- Player icon in label -->
  <circle cx="72" cy="95" r="3" fill="#FF4500"/>
  <rect x="70" y="97" width="4" height="6" fill="#FF4500"/>
  <rect x="69" y="100" width="2" height="3" fill="#FF4500"/>
  <rect x="73" y="100" width="2" height="3" fill="#FF4500"/>
  
  <!-- Percentage text -->
  <text x="75" y="110" text-anchor="middle" font-family="Arial" font-size="6" font-weight="bold" fill="#000">+30%</text>
  
  <!-- Enhanced energy bubbles -->
  <circle cx="60" cy="75" r="4" fill="#FFFF00" opacity="0.9" stroke="#FF4500" stroke-width="1"/>
  <circle cx="85" cy="85" r="3" fill="#FFFF00" opacity="0.9" stroke="#FF4500" stroke-width="1"/>
  <circle cx="70" cy="95" r="3.5" fill="#FFFF00" opacity="0.9" stroke="#FF4500" stroke-width="1"/>
  <circle cx="65" cy="125" r="2.5" fill="#FFFF00" opacity="0.8" stroke="#FF4500" stroke-width="1"/>
  <circle cx="55" cy="110" r="2" fill="#FFFF00" opacity="0.8" stroke="#FF4500" stroke-width="1"/>
  
  <!-- Enhanced speed lines -->
  <path d="M 15 65 L 35 65 L 30 60 M 35 65 L 30 70" stroke="#FF4500" stroke-width="3" fill="none"/>
  <path d="M 115 75 L 135 75 L 130 70 M 135 75 L 130 80" stroke="#FF4500" stroke-width="3" fill="none"/>
  <path d="M 20 95 L 40 95 L 35 90 M 40 95 L 35 100" stroke="#FF4500" stroke-width="3" fill="none"/>
  <path d="M 110 105 L 130 105 L 125 100 M 130 105 L 125 110" stroke="#FF4500" stroke-width="3" fill="none"/>
  
  <!-- More lightning effects -->
  <text x="30" y="40" font-family="Arial" font-size="14" fill="#FFD700">⚡</text>
  <text x="110" y="50" font-family="Arial" font-size="12" fill="#FFD700">⚡</text>
  <text x="20" y="80" font-family="Arial" font-size="10" fill="#FFD700">⚡</text>
  <text x="120" y="90" font-family="Arial" font-size="10" fill="#FFD700">⚡</text>
  <text x="25" y="125" font-family="Arial" font-size="8" fill="#FFD700">⚡</text>
  <text x="115" y="120" font-family="Arial" font-size="8" fill="#FFD700">⚡</text>
  
  <!-- Speed rings -->
  <circle cx="75" cy="90" r="55" fill="none" stroke="#FF4500" stroke-width="1" opacity="0.4"/>
  <circle cx="75" cy="90" r="65" fill="none" stroke="#FF4500" stroke-width="1" opacity="0.2"/>
  
  <!-- Speed indicator -->
  <text x="75" y="25" text-anchor="middle" font-family="Arial" font-size="12" fill="#FF0000" font-weight="bold">💨</text>
</svg>
