<?xml version="1.0" encoding="UTF-8"?>
<svg width="100" height="100" viewBox="0 0 100 100" xmlns="http://www.w3.org/2000/svg">
  <defs>
    <linearGradient id="recoveryGrad" x1="0%" y1="0%" x2="100%" y2="100%">
      <stop offset="0%" style="stop-color:#98FB98;stop-opacity:1" />
      <stop offset="50%" style="stop-color:#90EE90;stop-opacity:1" />
      <stop offset="100%" style="stop-color:#7CFC00;stop-opacity:1" />
    </linearGradient>
    <radialGradient id="healGlow" cx="50%" cy="50%" r="60%">
      <stop offset="0%" style="stop-color:#90EE90;stop-opacity:0.4"/>
      <stop offset="100%" style="stop-color:#228B22;stop-opacity:0"/>
    </radialGradient>
  </defs>
  
  <!-- Healing glow -->
  <rect x="8" y="8" width="84" height="84" rx="25" fill="url(#healGlow)"/>
  
  <!-- Main food container -->
  <rect x="12" y="12" width="76" height="76" rx="20" fill="url(#recoveryGrad)" stroke="#228B22" stroke-width="3"/>
  
  <!-- Medical cross in center -->
  <rect x="47" y="35" width="6" height="20" fill="#FFFFFF" stroke="#228B22" stroke-width="1"/>
  <rect x="40" y="47" width="20" height="6" fill="#FFFFFF" stroke="#228B22" stroke-width="1"/>
  
  <!-- Heart symbols for healing -->
  <path d="M30 30 Q27 25 22 30 Q17 35 22 40 L30 48 L38 40 Q43 35 38 30 Q33 25 30 30 Z" fill="#FF69B4" stroke="#DC143C" stroke-width="1"/>
  <path d="M70 30 Q67 25 62 30 Q57 35 62 40 L70 48 L78 40 Q83 35 78 30 Q73 25 70 30 Z" fill="#FF69B4" stroke="#DC143C" stroke-width="1"/>
  
  <!-- Energy particles -->
  <circle cx="25" cy="65" r="3" fill="#FFFF00" opacity="0.8"/>
  <circle cx="35" cy="70" r="2" fill="#FFFF00" opacity="0.8"/>
  <circle cx="65" cy="65" r="3" fill="#FFFF00" opacity="0.8"/>
  <circle cx="75" cy="70" r="2" fill="#FFFF00" opacity="0.8"/>
  
  <!-- Plus symbols -->
  <text x="25" y="82" text-anchor="middle" font-family="Arial" font-size="10" fill="#228B22">+</text>
  <text x="75" y="82" text-anchor="middle" font-family="Arial" font-size="10" fill="#228B22">+</text>
</svg>
