<?xml version="1.0" encoding="UTF-8"?>
<svg width="100" height="100" viewBox="0 0 100 100" xmlns="http://www.w3.org/2000/svg">
  <defs>
    <radialGradient id="ultraFortune" cx="50%" cy="50%" r="50%">
      <stop offset="0%" style="stop-color:#FF6347;stop-opacity:1" />
      <stop offset="50%" style="stop-color:#DC143C;stop-opacity:1" />
      <stop offset="100%" style="stop-color:#8B0000;stop-opacity:1" />
    </radialGradient>
    <radialGradient id="epicGlow" cx="50%" cy="50%" r="70%">
      <stop offset="0%" style="stop-color:#FF6347;stop-opacity:0.6"/>
      <stop offset="50%" style="stop-color:#DC143C;stop-opacity:0.3"/>
      <stop offset="100%" style="stop-color:#FF6347;stop-opacity:0"/>
    </radialGradient>
  </defs>
  
  <!-- Epic glow effect -->
  <circle cx="50" cy="50" r="48" fill="url(#epicGlow)"/>
  
  <!-- Main food circle -->
  <circle cx="50" cy="50" r="40" fill="url(#ultraFortune)" stroke="#8B0000" stroke-width="4"/>
  
  <!-- Crown symbol for ultra tier -->
  <path d="M40 35 L45 25 L50 30 L55 25 L60 35 L58 40 L42 40 Z" fill="#FFD700" stroke="#FFA500" stroke-width="2"/>
  <circle cx="42" cy="32" r="2" fill="#FF6347"/>
  <circle cx="50" cy="27" r="2" fill="#FF6347"/>
  <circle cx="58" cy="32" r="2" fill="#FF6347"/>
  
  <!-- Treasure chests in corners -->
  <rect x="28" y="58" width="8" height="6" rx="1" fill="#8B4513" stroke="#654321" stroke-width="1"/>
  <rect x="29" y="57" width="6" height="2" fill="#FFD700"/>
  
  <rect x="64" y="58" width="8" height="6" rx="1" fill="#8B4513" stroke="#654321" stroke-width="1"/>
  <rect x="65" y="57" width="6" height="2" fill="#FFD700"/>
  
  <!-- Central jewel -->
  <circle cx="50" cy="50" r="8" fill="#FF1493" stroke="#8B0000" stroke-width="2"/>
  <polygon points="50,44 47,50 50,56 53,50" fill="#FFFFFF" opacity="0.7"/>
  
  <!-- Epic sparkle effects -->
  <text x="15" y="15" font-family="Arial" font-size="12" fill="#FFD700">💎</text>
  <text x="85" y="15" font-family="Arial" font-size="12" fill="#FFD700">💎</text>
  <text x="15" y="90" font-family="Arial" font-size="12" fill="#FFD700">💎</text>
  <text x="85" y="90" font-family="Arial" font-size="12" fill="#FFD700">💎</text>
</svg>
